<?xml version="1.0" encoding="utf-8"?>
<!-- Generator: Adobe Illustrator 26.3.1, SVG Export Plug-In . SVG Version: 6.00 Build 0)  -->
<svg version="1.1" xmlns="http://www.w3.org/2000/svg" xmlns:xlink="http://www.w3.org/1999/xlink" x="0px" y="0px"
	 viewBox="0 0 1132.8 450.2" style="enable-background:new 0 0 1132.8 450.2;" xml:space="preserve">
<style type="text/css">
	.st0{display:none;}
	.st1{fill:#23AD7A;}
	.st2{fill:#00532C;}
	.st3{fill:#21AB79;}
</style>
<g id="Layer_1">
	<g id="Type">
		<path d="M297.7,270.6h114.7V292h-45.1v120.3h-24.8V292h-44.9L297.7,270.6L297.7,270.6z M407.5,309.7h21.2v19.8h0.4
			c0.7-2.8,2-5.5,3.9-8.1s4.2-5.1,6.9-7.2c2.7-2.2,5.7-3.9,9-5.3c3.3-1.3,6.7-2,10.1-2c2.6,0,4.5,0.1,5.5,0.2c1,0.1,2,0.3,3.1,0.4
			v21.8c-1.6-0.3-3.2-0.5-4.9-0.7c-1.7-0.2-3.3-0.3-4.9-0.3c-3.8,0-7.4,0.8-10.8,2.3s-6.3,3.8-8.8,6.7c-2.5,3-4.5,6.6-6,11
			s-2.2,9.4-2.2,15.1v48.8h-22.6L407.5,309.7L407.5,309.7z M571.5,412.3h-22.2V398h-0.4c-2.8,5.2-6.9,9.3-12.4,12.4
			s-11.1,4.7-16.8,4.7c-13.5,0-23.3-3.3-29.3-10c-6-6.7-9-16.8-9-30.3v-65.1H504v62.9c0,9,1.7,15.4,5.2,19.1
			c3.4,3.7,8.3,5.6,14.5,5.6c4.8,0,8.7-0.7,11.9-2.2s5.8-3.4,7.7-5.9c2-2.4,3.4-5.4,4.3-8.8c0.9-3.4,1.3-7.1,1.3-11.1v-59.5h22.6
			V412.3z M610,379.4c0.7,6.6,3.2,11.2,7.5,13.9c4.4,2.6,9.6,4,15.7,4c2.1,0,4.5-0.2,7.2-0.5s5.3-1,7.6-1.9c2.4-0.9,4.3-2.3,5.9-4.1
			c1.5-1.8,2.2-4.1,2.1-7c-0.1-2.9-1.2-5.3-3.2-7.1c-2-1.9-4.5-3.3-7.6-4.5c-3.1-1.1-6.6-2.1-10.6-2.9s-8-1.7-12.1-2.6
			c-4.2-0.9-8.3-2.1-12.2-3.4s-7.4-3.1-10.5-5.4c-3.1-2.2-5.6-5.1-7.4-8.6c-1.9-3.5-2.8-7.8-2.8-13c0-5.6,1.4-10.2,4.1-14
			c2.7-3.8,6.2-6.8,10.3-9.1c4.2-2.3,8.8-3.9,13.9-4.9c5.1-0.9,10-1.4,14.6-1.4c5.3,0,10.4,0.6,15.2,1.7c4.8,1.1,9.2,2.9,13.1,5.5
			c3.9,2.5,7.1,5.8,9.7,9.8c2.6,4,4.2,8.9,4.9,14.6h-23.6c-1.1-5.4-3.5-9.1-7.4-10.9c-3.9-1.9-8.4-2.8-13.4-2.8
			c-1.6,0-3.5,0.1-5.7,0.4s-4.2,0.8-6.2,1.5c-1.9,0.7-3.5,1.8-4.9,3.2c-1.3,1.4-2,3.2-2,5.5c0,2.8,1,5,2.9,6.7
			c1.9,1.7,4.4,3.1,7.5,4.3c3.1,1.1,6.6,2.1,10.6,2.9s8.1,1.7,12.3,2.6c4.1,0.9,8.1,2.1,12.1,3.4s7.5,3.1,10.6,5.4
			c3.1,2.3,5.6,5.1,7.5,8.5s2.9,7.7,2.9,12.7c0,6.1-1.4,11.2-4.2,15.5c-2.8,4.2-6.4,7.7-10.8,10.3c-4.4,2.6-9.4,4.6-14.8,5.8
			c-5.4,1.2-10.8,1.8-16.1,1.8c-6.5,0-12.5-0.7-18-2.2s-10.3-3.7-14.3-6.6c-4-3-7.2-6.7-9.5-11.1c-2.3-4.4-3.5-9.7-3.7-15.8H610
			V379.4z M684.6,309.7h17.1v-30.8h22.6v30.8h20.4v16.9h-20.4v54.8c0,2.4,0.1,4.4,0.3,6.2c0.2,1.7,0.7,3.2,1.4,4.4
			c0.7,1.2,1.8,2.1,3.3,2.7s3.4,0.9,6,0.9c1.6,0,3.2,0,4.8-0.1s3.2-0.3,4.8-0.7v17.5c-2.5,0.3-5,0.5-7.3,0.8
			c-2.4,0.3-4.8,0.4-7.3,0.4c-6,0-10.8-0.6-14.4-1.7c-3.6-1.1-6.5-2.8-8.5-5c-2.1-2.2-3.4-4.9-4.2-8.2c-0.7-3.3-1.2-7.1-1.3-11.3
			v-60.5h-17.1v-17.1H684.6z M760.7,309.7h21.4v13.9h0.4c3.2-6,7.6-10.2,13.3-12.8s11.8-3.9,18.5-3.9c8.1,0,15.1,1.4,21.1,4.3
			c6,2.8,11,6.7,15,11.7s6.9,10.8,8.9,17.4c2,6.6,3,13.7,3,21.2c0,6.9-0.9,13.6-2.7,20c-1.8,6.5-4.5,12.2-8.1,17.2
			s-8.2,8.9-13.8,11.9s-12.1,4.5-19.7,4.5c-3.3,0-6.6-0.3-9.9-0.9c-3.3-0.6-6.5-1.6-9.5-2.9s-5.9-3-8.4-5.1
			c-2.6-2.1-4.7-4.5-6.5-7.2h-0.4v51.2h-22.6V309.7z M839.7,361.1c0-4.6-0.6-9.1-1.8-13.5s-3-8.2-5.4-11.6c-2.4-3.4-5.4-6.1-8.9-8.1
			c-3.6-2-7.7-3.1-12.3-3.1c-9.5,0-16.7,3.3-21.5,9.9s-7.2,15.4-7.2,26.4c0,5.2,0.6,10,1.9,14.4c1.3,4.4,3.1,8.2,5.7,11.4
			c2.5,3.2,5.5,5.7,9,7.5c3.5,1.9,7.6,2.8,12.2,2.8c5.2,0,9.5-1.1,13.1-3.2s6.5-4.9,8.8-8.2c2.3-3.4,4-7.2,5-11.5
			C839.2,370,839.7,365.6,839.7,361.1z M879.6,270.6h22.6V292h-22.6V270.6z M879.6,309.7h22.6v102.6h-22.6V309.7z M922.4,270.6H945
			v141.7h-22.6V270.6z M1014.3,415.1c-8.2,0-15.5-1.4-21.9-4.1s-11.8-6.5-16.3-11.2c-4.4-4.8-7.8-10.5-10.1-17.1
			c-2.3-6.6-3.5-13.9-3.5-21.8c0-7.8,1.2-15,3.5-21.6s5.7-12.3,10.1-17.1c4.4-4.8,9.9-8.5,16.3-11.2c6.4-2.7,13.7-4.1,21.9-4.1
			s15.5,1.4,21.9,4.1c6.4,2.7,11.8,6.5,16.3,11.2c4.4,4.8,7.8,10.5,10.1,17.1c2.3,6.6,3.5,13.8,3.5,21.6c0,7.9-1.2,15.2-3.5,21.8
			c-2.3,6.6-5.7,12.3-10.1,17.1c-4.4,4.8-9.9,8.5-16.3,11.2C1029.8,413.7,1022.5,415.1,1014.3,415.1z M1014.3,397.2
			c5,0,9.4-1.1,13.1-3.2c3.7-2.1,6.7-4.9,9.1-8.3c2.4-3.4,4.1-7.3,5.3-11.6c1.1-4.3,1.7-8.7,1.7-13.2c0-4.4-0.6-8.7-1.7-13.1
			c-1.1-4.4-2.9-8.2-5.3-11.6s-5.4-6.1-9.1-8.2c-3.7-2.1-8.1-3.2-13.1-3.2s-9.4,1.1-13.1,3.2c-3.7,2.1-6.7,4.9-9.1,8.2
			c-2.4,3.4-4.1,7.2-5.3,11.6c-1.1,4.4-1.7,8.7-1.7,13.1c0,4.5,0.6,8.9,1.7,13.2c1.1,4.3,2.9,8.2,5.3,11.6c2.4,3.4,5.4,6.2,9.1,8.3
			C1004.9,396.2,1009.3,397.2,1014.3,397.2z M1072.7,309.7h17.1v-30.8h22.6v30.8h20.4v16.9h-20.4v54.8c0,2.4,0.1,4.4,0.3,6.2
			c0.2,1.7,0.7,3.2,1.4,4.4c0.7,1.2,1.8,2.1,3.3,2.7s3.4,0.9,6,0.9c1.6,0,3.2,0,4.8-0.1c1.6-0.1,3.2-0.3,4.8-0.7v17.5
			c-2.5,0.3-5,0.5-7.3,0.8c-2.4,0.3-4.8,0.4-7.3,0.4c-6,0-10.8-0.6-14.4-1.7c-3.6-1.1-6.5-2.8-8.5-5c-2.1-2.2-3.4-4.9-4.2-8.2
			c-0.7-3.3-1.2-7.1-1.3-11.3v-60.5h-17.1v-17.1H1072.7z"/>
	</g>
	<g id="Star">
		<path id="Star_1_" class="st0" d="M135.7,369.1l59.1-15.3l24.8,76.2L135.7,369.1z M271.3,270.6H167.7l-32-98.6l-32,98.6L0,270.5
			l83.9,60.9l-32,98.6l83.8-60.9l51.8-37.6L271.3,270.6L271.3,270.6L271.3,270.6L271.3,270.6z"/>
		<polygon class="st1" points="271.3,270.6 167.7,270.6 135.7,172 103.7,270.6 0,270.5 83.9,331.5 51.8,430 135.7,369.1 219.5,430 
			187.5,331.5 271.3,270.6 271.3,270.6 		"/>
		<polygon class="st2" points="194.7,353.8 187.5,331.5 135.7,369.1 		"/>
	</g>
</g>
<g id="Layer_2">
	<g>
		<path class="st3" d="M305.6,37.9v96.7h96.7V37.9H305.6z M394.2,75.9L394.2,75.9L369.3,94l-15.4,11.2l17.5-4.5l7.3,22.6l-24.9-18.1
			l-24.9,18.1l9.5-29.2l-24.9-18.1l30.7,0l9.5-29.2l9.5,29.2L394.2,75.9L394.2,75.9z"/>
		<path class="st3" d="M411.8,37.9v96.7h96.7V37.9H411.8z M500.4,75.9L500.4,75.9L475.5,94l-15.4,11.2l17.5-4.5l7.3,22.6l-24.9-18.1
			l-24.9,18.1l9.5-29.2l-24.9-18.1l30.7,0l9.5-29.2l9.5,29.2L500.4,75.9L500.4,75.9z"/>
		<path class="st3" d="M518.1,37.9v96.7h96.7V37.9H518.1z M606.6,75.9L606.6,75.9L581.8,94l-15.4,11.2l17.5-4.5l7.3,22.6l-24.9-18.1
			l-24.9,18.1L551,94l-24.9-18.1l30.7,0l9.5-29.2l9.5,29.2L606.6,75.9L606.6,75.9z"/>
		<path class="st3" d="M624.3,37.9v96.7H721V37.9H624.3z M712.9,75.9L712.9,75.9L688,94l-15.4,11.2l17.5-4.5l7.3,22.6l-24.9-18.1
			l-24.9,18.1l9.5-29.2l-24.9-18.1l30.7,0l9.5-29.2l9.5,29.2L712.9,75.9L712.9,75.9z"/>
		<path class="st3" d="M730.5,37.9v96.7h96.7V37.9H730.5z M819.1,75.9L819.1,75.9L794.2,94l-15.4,11.2l17.5-4.5l7.3,22.6l-24.9-18.1
			L754,123.2l9.5-29.2l-24.9-18.1l30.7,0l9.5-29.2l9.5,29.2L819.1,75.9L819.1,75.9z"/>
	</g>
</g>
</svg>
